<svg width="60" height="60" xmlns="http://www.w3.org/2000/svg">

 <g>
  <title>background</title>
  <rect fill="none" id="canvas_background" height="402" width="582" y="-1" x="-1"/>
 </g>
 <g>
  <title>Layer 1</title>
  <g transform="rotate(-180, 30, 30)" id="svg_1" opacity="0.4">
   <path id="svg_2" fill="white" d="m30,60c-16.5685,0 -30,-13.431499 -30,-30c0,-16.5685 13.4315,-30 30,-30c16.568501,0 30,13.4315 30,30c0,16.568501 -13.431499,30 -30,30zm4.694801,-30l-7.415102,7.377899c-0.3729,0.371101 -0.3729,0.972702 0,1.3438c0.3729,0.371101 0.9774,0.371101 1.3503,0l8.0903,-8.049799c0.372902,-0.371099 0.372902,-0.9727 0,-1.3438l-8.0903,-8.049801c-0.3729,-0.371099 -0.9774,-0.371099 -1.3503,0c-0.3729,0.371101 -0.3729,0.9727 0,1.343801l7.415102,7.377899z" clip-rule="evenodd" fill-rule="evenodd"/>
  </g>
 </g>
</svg>